<svg id="visual" viewBox="0 0 2000 2000" width="2000" height="2000" xmlns="http://www.w3.org/2000/svg" xmlns:xlink="http://www.w3.org/1999/xlink" version="1.1"><g stroke-width="1" stroke-linejoin="bevel"><path d="M908.9 1099.1L921.9 1359.3L1125.1 1170.1Z" fill="#0076b3" stroke="#eef5ff"></path><path d="M921.9 1359.3L1168.1 1370.3L1125.1 1170.1Z" fill="#008cb8" stroke="#eef5ff"></path><path d="M921.9 1359.3L942.9 1533.6L1168.1 1370.3Z" fill="#0766ad" stroke="#eef5ff"></path><path d="M908.9 1099.1L680.7 1148.1L921.9 1359.3Z" fill="#00a1b7" stroke="#eef5ff"></path><path d="M921.9 1359.3L627.7 1536.6L942.9 1533.6Z" fill="#0085b7" stroke="#eef5ff"></path><path d="M1168.1 1370.3L1310.3 1114.1L1125.1 1170.1Z" fill="#0766ad" stroke="#eef5ff"></path><path d="M1125.1 1170.1L1079.1 885.9L908.9 1099.1Z" fill="#009ab8" stroke="#eef5ff"></path><path d="M1310.3 1114.1L1079.1 885.9L1125.1 1170.1Z" fill="#008cb8" stroke="#eef5ff"></path><path d="M908.9 1099.1L704.7 944.9L680.7 1148.1Z" fill="#007db5" stroke="#eef5ff"></path><path d="M1079.1 885.9L945.9 864.9L908.9 1099.1Z" fill="#006eb1" stroke="#eef5ff"></path><path d="M942.9 1533.6L1120.1 1586.6L1168.1 1370.3Z" fill="#007db5" stroke="#eef5ff"></path><path d="M1168.1 1370.3L1372.3 1346.3L1310.3 1114.1Z" fill="#009ab8" stroke="#eef5ff"></path><path d="M945.9 864.9L704.7 944.9L908.9 1099.1Z" fill="#008cb8" stroke="#eef5ff"></path><path d="M1328.3 1535.6L1372.3 1346.3L1168.1 1370.3Z" fill="#00a1b7" stroke="#eef5ff"></path><path d="M441.4 1341.3L608.7 1386.3L680.7 1148.1Z" fill="#006eb1" stroke="#eef5ff"></path><path d="M680.7 1148.1L608.7 1386.3L921.9 1359.3Z" fill="#12a7b5" stroke="#eef5ff"></path><path d="M1120.1 1586.6L1328.3 1535.6L1168.1 1370.3Z" fill="#009ab8" stroke="#eef5ff"></path><path d="M608.7 1386.3L627.7 1536.6L921.9 1359.3Z" fill="#009ab8" stroke="#eef5ff"></path><path d="M942.9 1533.6L1156.1 1738.8L1120.1 1586.6Z" fill="#009ab8" stroke="#eef5ff"></path><path d="M1310.3 1114.1L1332.3 855.9L1079.1 885.9Z" fill="#0076b3" stroke="#eef5ff"></path><path d="M1079.1 885.9L1143.1 719.7L945.9 864.9Z" fill="#0076b3" stroke="#eef5ff"></path><path d="M1602.6 1067.1L1332.3 855.9L1310.3 1114.1Z" fill="#12a7b5" stroke="#eef5ff"></path><path d="M1332.3 855.9L1143.1 719.7L1079.1 885.9Z" fill="#008cb8" stroke="#eef5ff"></path><path d="M945.9 864.9L843.9 686.7L704.7 944.9Z" fill="#00a1b7" stroke="#eef5ff"></path><path d="M849.9 1804.8L1156.1 1738.8L942.9 1533.6Z" fill="#12a7b5" stroke="#eef5ff"></path><path d="M1120.1 1586.6L1156.1 1738.8L1328.3 1535.6Z" fill="#29adb2" stroke="#eef5ff"></path><path d="M704.7 944.9L460.4 1086.1L680.7 1148.1Z" fill="#29adb2" stroke="#eef5ff"></path><path d="M608.7 1386.3L458.4 1584.6L627.7 1536.6Z" fill="#006eb1" stroke="#eef5ff"></path><path d="M1143.1 719.7L843.9 686.7L945.9 864.9Z" fill="#12a7b5" stroke="#eef5ff"></path><path d="M704.7 944.9L500.4 831.9L460.4 1086.1Z" fill="#0085b7" stroke="#eef5ff"></path><path d="M460.4 1086.1L441.4 1341.3L680.7 1148.1Z" fill="#006eb1" stroke="#eef5ff"></path><path d="M1539.6 1527.6L1560.6 1335.3L1372.3 1346.3Z" fill="#00a1b7" stroke="#eef5ff"></path><path d="M1372.3 1346.3L1560.6 1335.3L1310.3 1114.1Z" fill="#009ab8" stroke="#eef5ff"></path><path d="M1539.6 1527.6L1372.3 1346.3L1328.3 1535.6Z" fill="#008cb8" stroke="#eef5ff"></path><path d="M642.7 1724.8L942.9 1533.6L627.7 1536.6Z" fill="#29adb2" stroke="#eef5ff"></path><path d="M642.7 1724.8L849.9 1804.8L942.9 1533.6Z" fill="#29adb2" stroke="#eef5ff"></path><path d="M1332.3 855.9L1276.3 702.7L1143.1 719.7Z" fill="#00a1b7" stroke="#eef5ff"></path><path d="M1143.1 719.7L1053.1 475.4L843.9 686.7Z" fill="#00a1b7" stroke="#eef5ff"></path><path d="M1585.6 649.7L1276.3 702.7L1332.3 855.9Z" fill="#0766ad" stroke="#eef5ff"></path><path d="M458.4 1584.6L642.7 1724.8L627.7 1536.6Z" fill="#006eb1" stroke="#eef5ff"></path><path d="M683.7 627.7L500.4 831.9L704.7 944.9Z" fill="#007db5" stroke="#eef5ff"></path><path d="M1383.3 1764.8L1539.6 1527.6L1328.3 1535.6Z" fill="#0093b9" stroke="#eef5ff"></path><path d="M1759.8 1165.1L1602.6 1067.1L1560.6 1335.3Z" fill="#0093b9" stroke="#eef5ff"></path><path d="M1560.6 1335.3L1602.6 1067.1L1310.3 1114.1Z" fill="#29adb2" stroke="#eef5ff"></path><path d="M441.4 1341.3L458.4 1584.6L608.7 1386.3Z" fill="#00a1b7" stroke="#eef5ff"></path><path d="M1310.3 2000L1383.3 1764.8L1156.1 1738.8Z" fill="#008cb8" stroke="#eef5ff"></path><path d="M1156.1 1738.8L1383.3 1764.8L1328.3 1535.6Z" fill="#009ab8" stroke="#eef5ff"></path><path d="M858.9 450.4L683.7 627.7L843.9 686.7Z" fill="#00a1b7" stroke="#eef5ff"></path><path d="M843.9 686.7L683.7 627.7L704.7 944.9Z" fill="#00a1b7" stroke="#eef5ff"></path><path d="M1602.6 1067.1L1613.6 909.9L1332.3 855.9Z" fill="#29adb2" stroke="#eef5ff"></path><path d="M460.4 1086.1L264.2 1276.3L441.4 1341.3Z" fill="#00a1b7" stroke="#eef5ff"></path><path d="M441.4 1341.3L249.2 1550.6L458.4 1584.6Z" fill="#0076b3" stroke="#eef5ff"></path><path d="M211.2 1092.1L264.2 1276.3L460.4 1086.1Z" fill="#008cb8" stroke="#eef5ff"></path><path d="M1356.3 425.4L1053.1 475.4L1276.3 702.7Z" fill="#29adb2" stroke="#eef5ff"></path><path d="M1276.3 702.7L1053.1 475.4L1143.1 719.7Z" fill="#0093b9" stroke="#eef5ff"></path><path d="M1602.6 1067.1L1799.8 906.9L1613.6 909.9Z" fill="#29adb2" stroke="#eef5ff"></path><path d="M1797.8 1380.3L1759.8 1165.1L1560.6 1335.3Z" fill="#009ab8" stroke="#eef5ff"></path><path d="M249.2 1550.6L407.4 1742.8L458.4 1584.6Z" fill="#0766ad" stroke="#eef5ff"></path><path d="M458.4 1584.6L407.4 1742.8L642.7 1724.8Z" fill="#0766ad" stroke="#eef5ff"></path><path d="M631.7 2000L832.9 2000L849.9 1804.8Z" fill="#0093b9" stroke="#eef5ff"></path><path d="M832.9 2000L1110.1 2000L849.9 1804.8Z" fill="#006eb1" stroke="#eef5ff"></path><path d="M849.9 1804.8L1110.1 2000L1156.1 1738.8Z" fill="#006eb1" stroke="#eef5ff"></path><path d="M1053.1 475.4L858.9 450.4L843.9 686.7Z" fill="#0076b3" stroke="#eef5ff"></path><path d="M419.4 671.7L251.2 946.9L500.4 831.9Z" fill="#008cb8" stroke="#eef5ff"></path><path d="M500.4 831.9L251.2 946.9L460.4 1086.1Z" fill="#009ab8" stroke="#eef5ff"></path><path d="M419.4 671.7L500.4 831.9L683.7 627.7Z" fill="#00a1b7" stroke="#eef5ff"></path><path d="M251.2 946.9L211.2 1092.1L460.4 1086.1Z" fill="#009ab8" stroke="#eef5ff"></path><path d="M631.7 2000L849.9 1804.8L642.7 1724.8Z" fill="#0076b3" stroke="#eef5ff"></path><path d="M1549.6 2000L1583.6 1747.8L1383.3 1764.8Z" fill="#0076b3" stroke="#eef5ff"></path><path d="M1383.3 1764.8L1583.6 1747.8L1539.6 1527.6Z" fill="#0085b7" stroke="#eef5ff"></path><path d="M1539.6 1527.6L1797.8 1380.3L1560.6 1335.3Z" fill="#009ab8" stroke="#eef5ff"></path><path d="M397.4 412.4L419.4 671.7L683.7 627.7Z" fill="#12a7b5" stroke="#eef5ff"></path><path d="M0 1307.3L249.2 1550.6L264.2 1276.3Z" fill="#0076b3" stroke="#eef5ff"></path><path d="M264.2 1276.3L249.2 1550.6L441.4 1341.3Z" fill="#006eb1" stroke="#eef5ff"></path><path d="M1777.8 1604.6L1797.8 1380.3L1539.6 1527.6Z" fill="#0076b3" stroke="#eef5ff"></path><path d="M1792.8 651.7L1585.6 649.7L1613.6 909.9Z" fill="#006eb1" stroke="#eef5ff"></path><path d="M1613.6 909.9L1585.6 649.7L1332.3 855.9Z" fill="#29adb2" stroke="#eef5ff"></path><path d="M1110.1 2000L1310.3 2000L1156.1 1738.8Z" fill="#0766ad" stroke="#eef5ff"></path><path d="M407.4 1742.8L631.7 2000L642.7 1724.8Z" fill="#0766ad" stroke="#eef5ff"></path><path d="M2000 1090.1L1799.8 906.9L1759.8 1165.1Z" fill="#0093b9" stroke="#eef5ff"></path><path d="M1759.8 1165.1L1799.8 906.9L1602.6 1067.1Z" fill="#008cb8" stroke="#eef5ff"></path><path d="M1583.6 1747.8L1777.8 1604.6L1539.6 1527.6Z" fill="#006eb1" stroke="#eef5ff"></path><path d="M1836.8 1813.8L1777.8 1604.6L1583.6 1747.8Z" fill="#007db5" stroke="#eef5ff"></path><path d="M858.9 450.4L695.7 396.4L683.7 627.7Z" fill="#0766ad" stroke="#eef5ff"></path><path d="M651.7 269.2L695.7 396.4L947.9 206.2Z" fill="#00a1b7" stroke="#eef5ff"></path><path d="M1585.6 649.7L1356.3 425.4L1276.3 702.7Z" fill="#009ab8" stroke="#eef5ff"></path><path d="M947.9 206.2L695.7 396.4L858.9 450.4Z" fill="#006eb1" stroke="#eef5ff"></path><path d="M0 1556.6L209.2 1740.8L249.2 1550.6Z" fill="#12a7b5" stroke="#eef5ff"></path><path d="M249.2 1550.6L209.2 1740.8L407.4 1742.8Z" fill="#29adb2" stroke="#eef5ff"></path><path d="M407.4 1742.8L386.4 2000L631.7 2000Z" fill="#009ab8" stroke="#eef5ff"></path><path d="M1310.3 2000L1549.6 2000L1383.3 1764.8Z" fill="#007db5" stroke="#eef5ff"></path><path d="M1776.8 419.4L1520.6 423.4L1585.6 649.7Z" fill="#008cb8" stroke="#eef5ff"></path><path d="M1585.6 649.7L1520.6 423.4L1356.3 425.4Z" fill="#0093b9" stroke="#eef5ff"></path><path d="M947.9 206.2L858.9 450.4L1053.1 475.4Z" fill="#0076b3" stroke="#eef5ff"></path><path d="M209.2 1740.8L386.4 2000L407.4 1742.8Z" fill="#00a1b7" stroke="#eef5ff"></path><path d="M217.2 432.4L182.2 656.7L419.4 671.7Z" fill="#0076b3" stroke="#eef5ff"></path><path d="M419.4 671.7L182.2 656.7L251.2 946.9Z" fill="#0085b7" stroke="#eef5ff"></path><path d="M0 1062.1L0 1307.3L211.2 1092.1Z" fill="#29adb2" stroke="#eef5ff"></path><path d="M211.2 1092.1L0 1307.3L264.2 1276.3Z" fill="#29adb2" stroke="#eef5ff"></path><path d="M1799.8 906.9L1792.8 651.7L1613.6 909.9Z" fill="#0766ad" stroke="#eef5ff"></path><path d="M0 1062.1L211.2 1092.1L0 929.9Z" fill="#0076b3" stroke="#eef5ff"></path><path d="M0 929.9L211.2 1092.1L251.2 946.9Z" fill="#009ab8" stroke="#eef5ff"></path><path d="M695.7 396.4L397.4 412.4L683.7 627.7Z" fill="#29adb2" stroke="#eef5ff"></path><path d="M947.9 206.2L1053.1 475.4L1109.1 187.2Z" fill="#00a1b7" stroke="#eef5ff"></path><path d="M695.7 396.4L651.7 269.2L397.4 412.4Z" fill="#12a7b5" stroke="#eef5ff"></path><path d="M1307.3 246.2L1053.1 475.4L1356.3 425.4Z" fill="#007db5" stroke="#eef5ff"></path><path d="M2000 1365.3L2000 1090.1L1759.8 1165.1Z" fill="#0085b7" stroke="#eef5ff"></path><path d="M1799.8 906.9L2000 653.7L1792.8 651.7Z" fill="#12a7b5" stroke="#eef5ff"></path><path d="M2000 1365.3L1759.8 1165.1L1797.8 1380.3Z" fill="#0766ad" stroke="#eef5ff"></path><path d="M2000 1604.6L1797.8 1380.3L1777.8 1604.6Z" fill="#006eb1" stroke="#eef5ff"></path><path d="M2000 1604.6L2000 1365.3L1797.8 1380.3Z" fill="#0093b9" stroke="#eef5ff"></path><path d="M1519.6 228.2L1307.3 246.2L1356.3 425.4Z" fill="#00a1b7" stroke="#eef5ff"></path><path d="M0 724.7L0 929.9L251.2 946.9Z" fill="#008cb8" stroke="#eef5ff"></path><path d="M1802.8 2000L1836.8 1813.8L1583.6 1747.8Z" fill="#0093b9" stroke="#eef5ff"></path><path d="M0 1307.3L0 1556.6L249.2 1550.6Z" fill="#0085b7" stroke="#eef5ff"></path><path d="M209.2 1740.8L202.2 2000L386.4 2000Z" fill="#007db5" stroke="#eef5ff"></path><path d="M1307.3 246.2L1109.1 187.2L1053.1 475.4Z" fill="#006eb1" stroke="#eef5ff"></path><path d="M2000 1090.1L2000 930.9L1799.8 906.9Z" fill="#006eb1" stroke="#eef5ff"></path><path d="M1836.8 1813.8L2000 1604.6L1777.8 1604.6Z" fill="#00a1b7" stroke="#eef5ff"></path><path d="M0 1808.8L202.2 2000L209.2 1740.8Z" fill="#008cb8" stroke="#eef5ff"></path><path d="M397.4 412.4L217.2 432.4L419.4 671.7Z" fill="#0085b7" stroke="#eef5ff"></path><path d="M182.2 656.7L0 724.7L251.2 946.9Z" fill="#0076b3" stroke="#eef5ff"></path><path d="M173.2 196.2L217.2 432.4L397.4 412.4Z" fill="#007db5" stroke="#eef5ff"></path><path d="M0 445.4L0 724.7L182.2 656.7Z" fill="#009ab8" stroke="#eef5ff"></path><path d="M1549.6 2000L1802.8 2000L1583.6 1747.8Z" fill="#007db5" stroke="#eef5ff"></path><path d="M1836.8 1813.8L2000 1836.8L2000 1604.6Z" fill="#29adb2" stroke="#eef5ff"></path><path d="M1520.6 423.4L1519.6 228.2L1356.3 425.4Z" fill="#0093b9" stroke="#eef5ff"></path><path d="M1792.8 651.7L1776.8 419.4L1585.6 649.7Z" fill="#0093b9" stroke="#eef5ff"></path><path d="M2000 448.4L1776.8 419.4L1792.8 651.7Z" fill="#009ab8" stroke="#eef5ff"></path><path d="M1776.8 419.4L1519.6 228.2L1520.6 423.4Z" fill="#0093b9" stroke="#eef5ff"></path><path d="M1355.3 0L1051.1 0L1109.1 187.2Z" fill="#006eb1" stroke="#eef5ff"></path><path d="M0 1556.6L0 1808.8L209.2 1740.8Z" fill="#00a1b7" stroke="#eef5ff"></path><path d="M651.7 269.2L497.4 178.2L397.4 412.4Z" fill="#29adb2" stroke="#eef5ff"></path><path d="M627.7 0L497.4 178.2L651.7 269.2Z" fill="#009ab8" stroke="#eef5ff"></path><path d="M828.9 0L651.7 269.2L947.9 206.2Z" fill="#009ab8" stroke="#eef5ff"></path><path d="M2000 930.9L2000 653.7L1799.8 906.9Z" fill="#29adb2" stroke="#eef5ff"></path><path d="M2000 2000L2000 1836.8L1836.8 1813.8Z" fill="#0085b7" stroke="#eef5ff"></path><path d="M1355.3 0L1109.1 187.2L1307.3 246.2Z" fill="#008cb8" stroke="#eef5ff"></path><path d="M1109.1 187.2L1051.1 0L947.9 206.2Z" fill="#0085b7" stroke="#eef5ff"></path><path d="M1051.1 0L828.9 0L947.9 206.2Z" fill="#008cb8" stroke="#eef5ff"></path><path d="M0 1808.8L0 2000L202.2 2000Z" fill="#0085b7" stroke="#eef5ff"></path><path d="M173.2 196.2L397.4 412.4L497.4 178.2Z" fill="#00a1b7" stroke="#eef5ff"></path><path d="M173.2 196.2L0 445.4L217.2 432.4Z" fill="#0076b3" stroke="#eef5ff"></path><path d="M217.2 432.4L0 445.4L182.2 656.7Z" fill="#009ab8" stroke="#eef5ff"></path><path d="M1802.8 2000L2000 2000L1836.8 1813.8Z" fill="#00a1b7" stroke="#eef5ff"></path><path d="M1776.8 419.4L1830.8 250.2L1519.6 228.2Z" fill="#0076b3" stroke="#eef5ff"></path><path d="M1519.6 228.2L1355.3 0L1307.3 246.2Z" fill="#29adb2" stroke="#eef5ff"></path><path d="M2000 653.7L2000 448.4L1792.8 651.7Z" fill="#0085b7" stroke="#eef5ff"></path><path d="M828.9 0L627.7 0L651.7 269.2Z" fill="#29adb2" stroke="#eef5ff"></path><path d="M1585.6 0L1355.3 0L1519.6 228.2Z" fill="#009ab8" stroke="#eef5ff"></path><path d="M2000 448.4L1830.8 250.2L1776.8 419.4Z" fill="#009ab8" stroke="#eef5ff"></path><path d="M227.2 0L173.2 196.2L497.4 178.2Z" fill="#12a7b5" stroke="#eef5ff"></path><path d="M627.7 0L463.4 0L497.4 178.2Z" fill="#0085b7" stroke="#eef5ff"></path><path d="M1830.8 250.2L1585.6 0L1519.6 228.2Z" fill="#008cb8" stroke="#eef5ff"></path><path d="M0 0L0 207.2L173.2 196.2Z" fill="#12a7b5" stroke="#eef5ff"></path><path d="M173.2 196.2L0 207.2L0 445.4Z" fill="#006eb1" stroke="#eef5ff"></path><path d="M2000 448.4L2000 215.2L1830.8 250.2Z" fill="#0076b3" stroke="#eef5ff"></path><path d="M1830.8 250.2L1811.8 0L1585.6 0Z" fill="#0076b3" stroke="#eef5ff"></path><path d="M463.4 0L227.2 0L497.4 178.2Z" fill="#00a1b7" stroke="#eef5ff"></path><path d="M2000 215.2L1811.8 0L1830.8 250.2Z" fill="#0076b3" stroke="#eef5ff"></path><path d="M227.2 0L0 0L173.2 196.2Z" fill="#009ab8" stroke="#eef5ff"></path><path d="M2000 215.2L2000 0L1811.8 0Z" fill="#29adb2" stroke="#eef5ff"></path></g></svg>