<?xml version="1.0" standalone="no"?>
<!DOCTYPE svg PUBLIC "-//W3C//DTD SVG 20010904//EN"
 "http://www.w3.org/TR/2001/REC-SVG-20010904/DTD/svg10.dtd">
<svg version="1.0" xmlns="http://www.w3.org/2000/svg"
 width="512.000000pt" height="512.000000pt" viewBox="0 0 512.000000 512.000000"
 preserveAspectRatio="xMidYMid meet">

<g transform="translate(0.000000,512.000000) scale(0.100000,-0.100000)"
fill="#000000" stroke="none">
<path d="M542 4795 c-62 -19 -106 -57 -136 -117 l-26 -52 0 -2066 0 -2066 25
-51 c31 -62 81 -102 149 -120 40 -10 301 -13 1278 -13 l1228 0 0 310 0 310
-765 2 -764 3 -22 21 c-29 30 -29 92 1 116 21 17 69 18 837 18 756 0 816 1
846 18 28 15 70 17 360 20 l327 3 -2 1747 c-3 1659 -4 1749 -21 1787 -23 51
-61 91 -112 118 l-40 22 -1560 2 c-1282 1 -1568 -1 -1603 -12z m818 -377 c21
-23 26 -68 10 -98 -15 -29 -65 -40 -181 -40 l-109 0 0 -70 0 -70 125 0 c120 0
127 -1 150 -25 16 -15 25 -36 25 -55 0 -19 -9 -40 -25 -55 -23 -24 -30 -25
-150 -25 l-125 0 0 -75 0 -75 127 0 c116 0 129 -2 150 -22 45 -42 22 -118 -40
-133 -13 -4 -96 -5 -185 -3 -154 3 -161 4 -186 27 l-26 24 0 332 c0 321 1 333
21 359 l20 26 189 0 c182 0 190 -1 210 -22z m222 10 c8 -7 39 -55 67 -105 29
-51 54 -93 56 -93 2 0 25 39 50 86 26 48 56 95 66 105 43 43 129 7 129 -54 0
-19 -29 -82 -75 -165 -41 -74 -75 -139 -75 -144 0 -6 34 -70 75 -143 46 -82
75 -144 75 -162 0 -58 -81 -99 -124 -64 -9 8 -39 56 -68 107 -28 52 -54 92
-57 89 -2 -3 -28 -47 -56 -98 -58 -104 -83 -124 -134 -106 -18 6 -38 24 -46
40 -19 35 -15 46 79 214 54 96 65 123 58 140 -5 11 -39 73 -75 138 -36 64 -68
126 -72 136 -7 22 17 76 37 84 25 10 74 7 90 -5z m837 -5 c22 -19 241 -632
241 -676 0 -32 -43 -70 -80 -70 -43 0 -65 25 -97 114 l-28 79 -86 0 -87 0 -28
-77 c-15 -43 -32 -84 -38 -92 -18 -23 -53 -31 -86 -20 -34 12 -50 35 -50 73 0
39 211 638 233 664 25 27 76 29 106 5z m500 8 c9 -6 46 -57 81 -115 55 -90 66
-102 76 -88 6 9 35 55 64 102 28 47 59 91 68 98 24 18 75 15 99 -7 20 -19 21
-34 28 -286 10 -341 6 -412 -25 -437 -30 -24 -85 -23 -110 2 -18 18 -20 33
-20 195 0 110 -4 175 -10 175 -5 0 -10 -4 -10 -10 0 -5 -14 -25 -31 -45 -48
-54 -97 -46 -144 23 l-25 37 0 -165 c0 -180 -6 -206 -54 -228 -32 -16 -80 -2
-96 29 -6 10 -10 157 -10 351 0 323 1 335 20 356 22 23 68 29 99 13z m-1598
-1300 c25 -31 25 -85 -1 -111 -18 -18 -33 -20 -194 -20 l-175 0 -20 26 c-26
34 -27 64 -1 97 27 34 38 35 218 34 149 -2 154 -3 173 -26z m1968 18 c17 -6
36 -19 41 -29 16 -31 11 -79 -10 -100 -20 -20 -33 -20 -904 -20 -849 0 -885 1
-907 19 -44 36 -22 123 35 134 11 2 402 5 867 6 595 1 855 -2 878 -10z m-1975
-530 c20 -16 26 -29 26 -59 0 -30 -6 -43 -26 -59 -25 -19 -40 -21 -186 -21
-88 0 -167 4 -177 10 -31 16 -46 65 -31 100 7 17 20 35 29 40 9 5 89 10 177
10 148 0 163 -2 188 -21z m2001 -4 c16 -15 25 -36 25 -55 0 -19 -9 -40 -25
-55 l-24 -25 -876 0 -877 0 -29 29 c-16 16 -29 39 -29 51 0 12 13 35 29 51
l29 29 877 0 876 0 24 -25z m-1995 -515 c26 -26 27 -83 1 -109 -28 -28 -71
-33 -226 -29 -136 3 -137 3 -161 31 -29 34 -31 66 -3 101 l20 26 175 0 c161 0
176 -2 194 -20z m2000 0 c22 -22 26 -69 10 -100 -6 -11 -27 -24 -48 -30 -24
-6 -327 -10 -875 -10 -912 0 -896 -1 -917 55 -6 15 -7 37 -4 51 14 56 -28 54
931 54 870 0 883 0 903 -20z m-2006 -511 c20 -16 26 -29 26 -59 0 -30 -6 -43
-26 -59 -25 -19 -40 -21 -186 -21 -88 0 -167 4 -177 10 -31 16 -46 65 -31 100
7 17 20 35 29 40 9 5 89 10 177 10 148 0 163 -2 188 -21z m2001 -4 c16 -15 25
-36 25 -55 0 -19 -9 -40 -25 -55 l-24 -25 -876 0 -877 0 -29 29 c-16 16 -29
39 -29 51 0 12 13 35 29 51 l29 29 877 0 876 0 24 -25z m-2005 -505 c28 -15
40 -61 25 -98 -20 -45 -63 -55 -234 -51 -142 4 -143 4 -167 32 -29 34 -31 66
-3 101 l20 26 170 0 c94 0 179 -4 189 -10z"/>
<path d="M2352 4077 c-16 -46 -16 -47 17 -47 29 0 30 1 19 33 -16 48 -23 50
-36 14z"/>
<path d="M4379 4677 c-88 -33 -139 -81 -178 -167 -18 -40 -21 -66 -21 -237 l0
-193 290 0 290 0 0 186 c0 110 -5 202 -11 224 -18 58 -78 130 -138 163 -63 36
-171 47 -232 24z"/>
<path d="M4180 2766 l0 -1156 290 0 290 0 2 1073 3 1072 25 -3 c14 -1 35 -14
48 -28 l22 -25 0 -490 c0 -295 4 -497 10 -508 5 -10 23 -24 40 -31 39 -16 84
1 100 39 7 19 10 174 8 526 -3 471 -4 502 -22 539 -25 50 -72 97 -122 122 -36
17 -66 19 -366 22 l-328 3 0 -1155z"/>
<path d="M4210 1446 c0 -21 196 -445 212 -458 26 -23 70 -23 97 0 17 14 184
374 207 444 5 17 -7 18 -255 18 -144 0 -261 -2 -261 -4z"/>
<path d="M3245 945 l-25 -24 0 -277 0 -276 300 292 c165 161 300 296 300 301
0 5 -124 9 -275 9 l-276 0 -24 -25z"/>
</g>
</svg>
