<?xml version="1.0" standalone="no"?>
<!DOCTYPE svg PUBLIC "-//W3C//DTD SVG 20010904//EN"
 "http://www.w3.org/TR/2001/REC-SVG-20010904/DTD/svg10.dtd">
<svg version="1.0" xmlns="http://www.w3.org/2000/svg"
 width="512.000000pt" height="512.000000pt" viewBox="0 0 512.000000 512.000000"
 preserveAspectRatio="xMidYMid meet">

<g transform="translate(0.000000,512.000000) scale(0.100000,-0.100000)"
fill="#353535" stroke="none">
<path d="M1710 5104 c-207 -44 -372 -203 -425 -409 -19 -76 -19 -224 0 -299
39 -147 143 -281 272 -348 80 -42 125 -56 250 -73 127 -18 175 -58 175 -149 0
-118 -77 -165 -242 -145 -357 42 -643 284 -744 630 l-24 84 -74 -3 c-290 -10
-519 -244 -536 -547 -8 -160 41 -293 157 -417 37 -40 73 -83 79 -95 17 -31 15
-89 -4 -129 -20 -43 -61 -67 -149 -88 -321 -79 -506 -383 -426 -698 56 -218
202 -361 426 -417 42 -11 87 -27 101 -36 54 -35 79 -115 55 -178 -5 -13 -38
-53 -74 -90 -187 -193 -219 -468 -82 -703 39 -66 138 -163 206 -202 69 -39
192 -72 268 -72 l56 0 17 72 c56 232 231 446 457 558 105 53 208 80 326 87 93
5 102 4 134 -18 19 -13 43 -36 53 -50 26 -34 26 -108 1 -152 -24 -42 -94 -77
-153 -77 -187 -1 -398 -136 -484 -311 -37 -75 -66 -185 -65 -249 0 -80 29
-197 68 -276 200 -402 812 -402 1012 0 69 140 68 125 69 1174 l0 934 -297 -4
c-325 -5 -330 -6 -463 -73 -83 -42 -192 -157 -235 -247 -37 -78 -65 -185 -65
-254 0 -78 -67 -146 -142 -146 -56 0 -99 22 -130 64 -20 28 -23 44 -22 113 2
249 138 513 344 667 l35 27 -25 17 c-14 9 -63 56 -110 103 -140 142 -220 312
-242 516 -11 96 -11 104 10 146 38 79 126 110 202 71 55 -27 76 -68 84 -163
18 -216 142 -397 331 -484 107 -50 150 -55 451 -55 l275 0 -3 973 -3 972 -27
74 c-103 281 -380 437 -668 375z"/>
<path d="M2610 4957 c0 -3 11 -30 25 -61 14 -31 35 -91 47 -133 21 -75 22 -98
26 -584 l3 -506 84 -7 c449 -34 810 -298 956 -697 175 -479 31 -1010 -353
-1299 -147 -111 -342 -188 -531 -211 -51 -6 -106 -13 -124 -15 l-32 -5 -3
-502 c-4 -480 -5 -505 -26 -581 -12 -44 -33 -104 -47 -134 -14 -30 -25 -56
-25 -58 0 -2 102 -4 228 -4 320 0 315 -4 353 310 12 102 26 190 31 196 5 7 30
17 56 23 72 18 268 98 350 143 l73 40 92 -71 c51 -39 125 -96 164 -127 40 -31
89 -60 108 -64 76 -17 94 -4 343 243 129 128 240 244 248 259 17 33 18 105 1
134 -7 11 -65 89 -131 173 l-119 153 61 126 c34 70 78 179 99 242 21 63 38
116 39 118 1 1 90 14 199 28 108 13 212 31 230 38 17 8 43 29 56 47 l24 34 0
352 c0 339 -1 352 -21 379 -44 60 -60 65 -279 93 l-207 26 -39 120 c-22 66
-67 175 -100 242 -35 71 -57 128 -53 135 4 7 54 73 111 146 57 73 113 147 123
165 24 38 26 97 5 141 -20 42 -462 482 -498 495 -49 19 -101 13 -143 -15 -21
-15 -98 -73 -171 -130 -72 -57 -134 -104 -138 -104 -4 0 -62 27 -129 59 -66
33 -175 78 -241 100 l-120 39 -26 207 c-28 219 -33 235 -93 279 -25 20 -43 21
-257 24 -126 2 -229 1 -229 -1z"/>
<path d="M2710 2556 l0 -817 58 6 c313 34 555 197 682 458 55 115 72 184 77
324 6 139 -10 232 -58 347 -64 150 -196 302 -335 384 -96 57 -236 102 -340
109 l-84 6 0 -817z"/>
</g>
</svg>
